HIERARCHY
ROOT Hips
{
	OFFSET 0.000000 0.794594 0.001814
	CHANNELS 6 Xposition Yposition Zposition Zrotation Xrotation Yrotation
	JOINT Spine
	{
		OFFSET -0.000000 0.051920 0.010783
		CHANNELS 3 Zrotation Xrotation Yrotation
		JOINT Chest
		{
			OFFSET 0.000000 0.111800 0.002643
			CHANNELS 3 Zrotation Xrotation Yrotation
			JOINT UpperChest
			{
				OFFSET 0.000011 0.124994 0.000757
				CHANNELS 3 Zrotation Xrotation Yrotation
				JOINT Neck
				{
					OFFSET 0.000112 0.117645 -0.020286
					CHANNELS 3 Zrotation Xrotation Yrotation
					JOINT Head
					{
						OFFSET 0.000009 0.074358 -0.000161
						CHANNELS 3 Zrotation Xrotation Yrotation
						JOINT LeftEye
						{
							OFFSET 0.019846 0.051735 0.040589
							CHANNELS 3 Zrotation Xrotation Yrotation
							End Site
							{
								OFFSET -0.000199 0.054090 0.042333
							}
						}
						JOINT RightEye
						{
							OFFSET -0.020226 0.051740 0.040395
							CHANNELS 3 Zrotation Xrotation Yrotation
							End Site
							{
								OFFSET -0.000199 0.054090 0.042333
							}
						}
					}
				}
				JOINT LeftShoulder
				{
					OFFSET 0.022481 0.089795 -0.017340
					CHANNELS 3 Zrotation Xrotation Yrotation
					JOINT LeftUpperArm
					{
						OFFSET 0.087730 -0.000010 0.000425
						CHANNELS 3 Zrotation Xrotation Yrotation
						JOINT LeftLowerArm
						{
							OFFSET 0.210364 0.001461 0.000713
							CHANNELS 3 Zrotation Xrotation Yrotation
							JOINT LeftHand
							{
								OFFSET 0.205444 0.001377 0.000711
								CHANNELS 3 Zrotation Xrotation Yrotation
								JOINT LeftIndexProximal
								{
									OFFSET 0.064499 0.001525 0.020305
									CHANNELS 3 Zrotation Xrotation Yrotation
									JOINT LeftIndexIntermediate
									{
										OFFSET 0.033222 0.000012 0.000212
										CHANNELS 3 Zrotation Xrotation Yrotation
										JOINT LeftIndexDistal
										{
											OFFSET 0.020455 0.000007 0.000130
											CHANNELS 3 Zrotation Xrotation Yrotation
											End Site
											{
												OFFSET 0.020455 0.000007 0.000130
											}
										}
									}
								}
								JOINT LeftLittleProximal
								{
									OFFSET 0.062854 -0.001936 -0.027845
									CHANNELS 3 Zrotation Xrotation Yrotation
									JOINT LeftLittleIntermediate
									{
										OFFSET 0.031399 0.000011 0.000200
										CHANNELS 3 Zrotation Xrotation Yrotation
										JOINT LeftLittleDistal
										{
											OFFSET 0.018096 0.000006 0.000115
											CHANNELS 3 Zrotation Xrotation Yrotation
											End Site
											{
												OFFSET 0.018096 0.000006 0.000115
											}
										}
									}
								}
								JOINT LeftMiddleProximal
								{
									OFFSET 0.066609 0.003801 0.003549
									CHANNELS 3 Zrotation Xrotation Yrotation
									JOINT LeftMiddleIntermediate
									{
										OFFSET 0.037005 0.000013 0.000236
										CHANNELS 3 Zrotation Xrotation Yrotation
										JOINT LeftMiddleDistal
										{
											OFFSET 0.022829 0.000008 0.000145
											CHANNELS 3 Zrotation Xrotation Yrotation
											End Site
											{
												OFFSET 0.022829 0.000008 0.000145
											}
										}
									}
								}
								JOINT LeftRingProximal
								{
									OFFSET 0.066900 0.003343 -0.012193
									CHANNELS 3 Zrotation Xrotation Yrotation
									JOINT LeftRingIntermediate
									{
										OFFSET 0.034327 0.000012 0.000219
										CHANNELS 3 Zrotation Xrotation Yrotation
										JOINT LeftRingDistal
										{
											OFFSET 0.019811 0.000007 0.000126
											CHANNELS 3 Zrotation Xrotation Yrotation
											End Site
											{
												OFFSET 0.019811 0.000007 0.000126
											}
										}
									}
								}
								JOINT LeftThumbProximal
								{
									OFFSET 0.001848 -0.006641 0.017858
									CHANNELS 3 Zrotation Xrotation Yrotation
									JOINT LeftThumbIntermediate
									{
										OFFSET 0.030326 -0.003605 0.035110
										CHANNELS 3 Zrotation Xrotation Yrotation
										JOINT LeftThumbDistal
										{
											OFFSET 0.019149 -0.004135 0.020870
											CHANNELS 3 Zrotation Xrotation Yrotation
											End Site
											{
												OFFSET 0.019149 -0.004134 0.020871
											}
										}
									}
								}
							}
						}
					}
				}
				JOINT RightShoulder
				{
					OFFSET -0.022291 0.089803 -0.017557
					CHANNELS 3 Zrotation Xrotation Yrotation
					JOINT RightUpperArm
					{
						OFFSET -0.087729 0.000010 -0.000425
						CHANNELS 3 Zrotation Xrotation Yrotation
						JOINT RightLowerArm
						{
							OFFSET -0.210401 0.000107 -0.000861
							CHANNELS 3 Zrotation Xrotation Yrotation
							JOINT RightHand
							{
								OFFSET -0.205447 0.000040 -0.000840
								CHANNELS 3 Zrotation Xrotation Yrotation
								JOINT RightIndexProximal
								{
									OFFSET -0.064690 0.001511 0.019688
									CHANNELS 3 Zrotation Xrotation Yrotation
									JOINT RightIndexIntermediate
									{
										OFFSET -0.033222 0.000005 -0.000106
										CHANNELS 3 Zrotation Xrotation Yrotation
										JOINT RightIndexDistal
										{
											OFFSET -0.020455 0.000003 -0.000065
											CHANNELS 3 Zrotation Xrotation Yrotation
											End Site
											{
												OFFSET -0.020455 0.000003 -0.000065
											}
										}
									}
								}
								JOINT RightLittleProximal
								{
									OFFSET -0.062585 -0.001949 -0.028444
									CHANNELS 3 Zrotation Xrotation Yrotation
									JOINT RightLittleIntermediate
									{
										OFFSET -0.031399 0.000005 -0.000100
										CHANNELS 3 Zrotation Xrotation Yrotation
										JOINT RightLittleDistal
										{
											OFFSET -0.018096 0.000003 -0.000057
											CHANNELS 3 Zrotation Xrotation Yrotation
											End Site
											{
												OFFSET -0.018096 0.000003 -0.000057
											}
										}
									}
								}
								JOINT RightMiddleProximal
								{
									OFFSET -0.066640 0.003787 0.002913
									CHANNELS 3 Zrotation Xrotation Yrotation
									JOINT RightMiddleIntermediate
									{
										OFFSET -0.037006 0.000005 -0.000118
										CHANNELS 3 Zrotation Xrotation Yrotation
										JOINT RightMiddleDistal
										{
											OFFSET -0.022829 0.000003 -0.000072
											CHANNELS 3 Zrotation Xrotation Yrotation
											End Site
											{
												OFFSET -0.022829 0.000003 -0.000072
											}
										}
									}
								}
								JOINT RightRingProximal
								{
									OFFSET -0.066782 0.003329 -0.012831
									CHANNELS 3 Zrotation Xrotation Yrotation
									JOINT RightRingIntermediate
									{
										OFFSET -0.034327 0.000005 -0.000109
										CHANNELS 3 Zrotation Xrotation Yrotation
										JOINT RightRingDistal
										{
											OFFSET -0.019810 0.000003 -0.000063
											CHANNELS 3 Zrotation Xrotation Yrotation
											End Site
											{
												OFFSET -0.019810 0.000003 -0.000063
											}
										}
									}
								}
								JOINT RightThumbProximal
								{
									OFFSET -0.002017 -0.006641 0.017839
									CHANNELS 3 Zrotation Xrotation Yrotation
									JOINT RightThumbIntermediate
									{
										OFFSET -0.032510 -0.005699 0.032803
										CHANNELS 3 Zrotation Xrotation Yrotation
										JOINT RightThumbDistal
										{
											OFFSET -0.020784 -0.005081 0.019013
											CHANNELS 3 Zrotation Xrotation Yrotation
											End Site
											{
												OFFSET -0.020784 -0.005081 0.019013
											}
										}
									}
								}
							}
						}
					}
				}
			}
		}
	}
	JOINT LeftUpperLeg
	{
		OFFSET 0.077122 -0.039594 -0.005714
		CHANNELS 3 Zrotation Xrotation Yrotation
		JOINT LeftLowerLeg
		{
			OFFSET 0.000000 -0.343087 0.003694
			CHANNELS 3 Zrotation Xrotation Yrotation
			JOINT LeftFoot
			{
				OFFSET 0.000000 -0.401029 -0.031329
				CHANNELS 3 Zrotation Xrotation Yrotation
				JOINT LeftToes
				{
					OFFSET 0.000000 -0.001594 0.127952
					CHANNELS 3 Zrotation Xrotation Yrotation
					End Site
					{
						OFFSET -0.000000 -0.001594 0.127952
					}
				}
			}
		}
	}
	JOINT RightUpperLeg
	{
		OFFSET -0.077122 -0.039594 -0.005714
		CHANNELS 3 Zrotation Xrotation Yrotation
		JOINT RightLowerLeg
		{
			OFFSET -0.000000 -0.343087 0.003695
			CHANNELS 3 Zrotation Xrotation Yrotation
			JOINT RightFoot
			{
				OFFSET 0.000000 -0.401029 -0.031326
				CHANNELS 3 Zrotation Xrotation Yrotation
				JOINT RightToes
				{
					OFFSET 0.000000 -0.001593 0.127952
					CHANNELS 3 Zrotation Xrotation Yrotation
					End Site
					{
						OFFSET -0.000000 -0.001593 0.127952
					}
				}
			}
		}
	}
}
MOTION
Frames: 4
Frame Time: 0.016667
0.007523 0.791314 -0.017086 -5.388213 0.902147 -5.522430 -1.383965 3.496018 1.833393 4.072919 -1.003373 1.814275 2.513137 -0.701537 2.240813 -5.006391 -2.489326 -1.533970 13.594764 6.249901 -8.161674 -0.747009 -2.461436 2.083712 -0.948108 -2.467806 1.543978 -4.923535 -0.059631 -0.687551 -71.822485 -11.542495 12.458052 0.860199 -0.841834 -34.118192 -3.760080 -21.003008 -3.003893 -3.690484 4.076119 0.576259 -6.229217 1.482484 -1.148112 -7.851223 -0.281489 -0.238258 -27.068931 3.106151 3.175882 -35.971184 0.051039 0.017023 -33.563075 0.048324 0.015135 -8.030560 3.942679 1.994420 -20.155859 0.030190 0.005525 -16.517557 0.024889 0.003770 -12.991881 3.763350 2.328061 -29.706275 0.043389 0.011757 -22.217318 0.033094 0.006713 5.842796 -3.720288 23.577750 -9.602710 4.581024 19.616315 -7.502229 3.546080 16.061784 6.131362 -0.082399 0.882732 57.123768 15.356258 33.080331 1.116853 -3.202370 135.473578 17.552049 -55.402099 27.252590 33.968348 12.389416 -9.800680 59.328075 0.716900 1.642363 60.943210 -1.070242 2.505495 78.885031 -1.287509 2.092660 82.629805 0.094324 -0.083325 82.880432 0.094475 -0.084075 61.241047 2.985965 -9.024022 71.785275 0.090706 -0.065620 71.540644 0.090532 -0.065252 70.030189 0.175079 -4.468095 72.847348 0.091215 -0.067357 73.304350 0.091402 -0.068017 30.777816 13.431125 -36.519676 -7.882295 5.809850 -12.695413 3.998197 2.496495 -64.228326 3.622289 -13.114931 -8.784381 0.002647 22.884996 0.029480 -4.740007 -7.586484 1.850443 -0.000000 0.000000 -0.000001 5.039600 -2.366818 22.617611 -0.000309 10.515565 -0.006665 7.327298 -1.682637 -1.125848 -0.000000 -0.000002 -0.000001 
0.007518 0.791315 -0.016895 -5.389164 0.883807 -5.511299 -1.380768 3.480812 1.830308 4.073594 -1.007109 1.813659 2.513793 -0.705263 2.240166 -5.005136 -2.489948 -1.534864 13.614665 6.238874 -8.177347 -0.746986 -2.461603 2.083753 -0.948096 -2.467971 1.544028 -4.923535 -0.059626 -0.687553 -71.826659 -11.492193 12.548431 0.863567 -0.839312 -34.186138 -3.736599 -21.015398 -2.966718 -3.690492 4.076116 0.576244 -6.229203 1.482472 -1.148101 -7.851232 -0.281485 -0.238263 -27.068917 3.106131 3.175850 -35.971195 0.051027 0.017033 -33.563054 0.048331 0.015140 -8.030565 3.942678 1.994406 -20.155869 0.030177 0.005511 -16.517554 0.024893 0.003789 -12.991901 3.763342 2.328042 -29.706248 0.043383 0.011750 -22.217299 0.033091 0.006724 5.842801 -3.720299 23.577748 -9.602741 4.581030 19.616327 -7.502197 3.546079 16.061787 6.131367 -0.082386 0.882735 57.140010 15.373359 33.047064 1.114524 -3.202382 135.468893 17.539706 -55.407676 27.239474 33.968341 12.389421 -9.800694 59.328075 0.716909 1.642381 60.943210 -1.070249 2.505489 78.885031 -1.287515 2.092650 82.629825 0.094342 -0.083313 82.880411 0.094455 -0.084063 61.241020 2.985972 -9.024025 71.785295 0.090697 -0.065628 71.540624 0.090517 -0.065270 70.030196 0.175091 -4.468097 72.847348 0.091220 -0.067329 73.304343 0.091401 -0.068018 30.777813 13.431119 -36.519676 -7.882292 5.809864 -12.695414 3.998202 2.496509 -64.228319 3.617085 -13.082658 -8.799906 0.002398 22.883734 0.029461 -4.736974 -7.599776 1.853345 -0.000000 -0.000000 0.000001 5.033486 -2.320900 22.610699 -0.000408 10.493030 -0.006562 7.321793 -1.689242 -1.132235 -0.000000 -0.000001 0.000001 
0.007512 0.791317 -0.016704 -5.390185 0.865535 -5.500187 -1.377606 3.465525 1.827243 4.074269 -1.010844 1.813040 2.514453 -0.708989 2.239519 -5.003840 -2.490818 -1.535751 13.635426 6.229113 -8.192933 -0.747035 -2.461480 2.083699 -0.948146 -2.467859 1.543993 -4.923535 -0.059633 -0.687553 -71.830887 -11.441850 12.638495 0.866892 -0.836751 -34.254126 -3.713171 -21.027656 -2.929589 -3.690488 4.076124 0.576267 -6.229226 1.482469 -1.148117 -7.851236 -0.281486 -0.238252 -27.068926 3.106138 3.175868 -35.971212 0.051026 0.017020 -33.563037 0.048328 0.015143 -8.030571 3.942685 1.994427 -20.155871 0.030178 0.005511 -16.517583 0.024891 0.003784 -12.991900 3.763351 2.328064 -29.706251 0.043386 0.011746 -22.217299 0.033089 0.006717 5.842816 -3.720288 23.577750 -9.602726 4.581051 19.616331 -7.502235 3.546048 16.061793 6.131361 -0.082390 0.882728 57.153746 15.388333 33.013692 1.114937 -3.202468 135.464440 17.527360 -55.412946 27.226280 33.968327 12.389410 -9.800702 59.328082 0.716902 1.642394 60.943210 -1.070263 2.505494 78.885010 -1.287527 2.092675 82.629832 0.094304 -0.083316 82.880384 0.094466 -0.084095 61.241020 2.985963 -9.024034 71.785302 0.090707 -0.065628 71.540638 0.090534 -0.065260 70.030203 0.175071 -4.468101 72.847355 0.091208 -0.067341 73.304350 0.091403 -0.068024 30.777840 13.431122 -36.519710 -7.882300 5.809856 -12.695419 3.998202 2.496481 -64.228319 3.612119 -13.047505 -8.815408 0.002434 22.879202 0.029472 -4.733929 -7.612701 1.856282 0.000000 -0.000000 -0.000000 5.027188 -2.273981 22.603830 -0.000647 10.468643 -0.006518 7.316307 -1.695048 -1.138682 -0.000000 -0.000000 -0.000001 
0.007508 0.791322 -0.016514 -5.387853 0.848579 -5.490706 -1.376259 3.448107 1.824098 4.074756 -1.014427 1.812426 2.514916 -0.712570 2.238893 -5.002826 -2.491293 -1.536443 13.653401 6.222640 -8.204654 -0.746941 -2.461427 2.083710 -0.948061 -2.467794 1.543994 -4.923521 -0.059623 -0.687545 -71.833625 -11.394840 12.728750 0.870045 -0.834369 -34.316745 -3.687252 -21.041250 -2.894349 -3.690502 4.076113 0.576267 -6.229198 1.482475 -1.148117 -7.851217 -0.281474 -0.238250 -27.068960 3.106135 3.175866 -35.971184 0.051014 0.017020 -33.563044 0.048334 0.015152 -8.030557 3.942689 1.994423 -20.155866 0.030170 0.005516 -16.517585 0.024891 0.003766 -12.991895 3.763345 2.328057 -29.706258 0.043385 0.011753 -22.217306 0.033086 0.006718 5.842805 -3.720279 23.577750 -9.602726 4.581031 19.616334 -7.502226 3.546063 16.061784 6.131360 -0.082396 0.882732 57.167611 15.406496 32.980214 1.115917 -3.202514 135.462090 17.506492 -55.419731 27.204415 33.968341 12.389425 -9.800694 59.328075 0.716906 1.642387 60.943210 -1.070247 2.505489 78.885031 -1.287508 2.092663 82.629832 0.094299 -0.083307 82.880411 0.094443 -0.084090 61.241020 2.985982 -9.024030 71.785315 0.090692 -0.065625 71.540631 0.090518 -0.065272 70.030189 0.175085 -4.468104 72.847342 0.091202 -0.067352 73.304343 0.091417 -0.068034 30.777819 13.431133 -36.519703 -7.882295 5.809865 -12.695413 3.998199 2.496512 -64.228305 3.604410 -13.010372 -8.829353 0.002612 22.869183 0.029446 -4.730593 -7.623666 1.859729 -0.000000 0.000000 0.000000 5.017900 -2.230143 22.598335 -0.000787 10.446447 -0.006450 7.311145 -1.701471 -1.144644 -0.000000 -0.000001 -0.000002 
